# xmcd
#
# Track frame offsets:
#	150
#	31283
#	56356
#	96539
#	139257
#	185987
#	195551
#	215038
#	252415
#
# Disc length: 3802 seconds
#
# Revision: 1
# Processed by: cddbd v1.5.2PL0 Copyright (c) Steve Scherf et al.
# Submitted via: audiograbber 1.83.01
#
DISCID=8e0ed809
DTITLE=Grateful Dead - 77-06-07 Winterland Arena, San Francisco CA
DYEAR=1900
DGENRE=
TTITLE0=Bertha
TTITLE1=Jack Straw
TTITLE2=Tennessee Jed
TTITLE3=Looks Like Rain
TTITLE4=Peggy-O
TTITLE5=Funiculi, Funicula
TTITLE6=El Paso
TTITLE7=Friend Of The Devil
TTITLE8=The Music Never Stopped
EXTD=
EXTT0=
EXTT1=
EXTT2=
EXTT3=
EXTT4=
EXTT5=
EXTT6=
EXTT7=
EXTT8=
PLAYORDER=
